<svg width="19" height="23" viewBox="0 0 19 23" fill="none" xmlns="http://www.w3.org/2000/svg">
<path d="M15.9959 12.0403C16.0179 10.3334 16.9346 8.71833 18.3887 7.82432C17.4714 6.51415 15.9348 5.68346 14.3362 5.63344C12.6311 5.45447 10.9781 6.65373 10.1092 6.65373C9.22353 6.65373 7.88576 5.65121 6.4452 5.68085C4.5675 5.74152 2.81701 6.80908 1.90347 8.45069C-0.0602847 11.8506 1.4045 16.8474 3.28561 19.5956C4.22677 20.9414 5.32672 22.4446 6.76597 22.3913C8.17437 22.3329 8.70038 21.4932 10.4004 21.4932C12.0847 21.4932 12.5782 22.3913 14.0467 22.3574C15.558 22.3329 16.5101 21.0057 17.4183 19.6472C18.0945 18.6883 18.6149 17.6285 18.9601 16.5071C17.184 15.7559 15.998 13.9686 15.9959 12.0403Z" fill="white"/>
<path d="M13.2222 3.82606C14.0462 2.83686 14.4522 1.56542 14.3539 0.281738C13.095 0.413962 11.9321 1.01564 11.097 1.96688C10.2803 2.89629 9.85531 4.14537 9.93565 5.37998C11.195 5.39295 12.4331 4.80759 13.2222 3.82606Z" fill="white"/>
</svg>
