<svg width="32" height="33" viewBox="0 0 32 33" fill="none" xmlns="http://www.w3.org/2000/svg">
<path d="M16 32.4319C24.8366 32.4319 32 25.2684 32 16.4319C32 7.59533 24.8366 0.431885 16 0.431885C7.16344 0.431885 0 7.59533 0 16.4319C0 25.2684 7.16344 32.4319 16 32.4319Z" fill="#F49B33"/>
<path d="M21.8938 13.1643C21.7373 11.1578 20.0162 10.4552 17.8378 10.2251L17.8869 7.44539L16.1964 7.41777L16.1473 10.1238C15.7024 10.1146 15.2484 10.1177 14.7943 10.1177L14.8434 7.39323L13.1529 7.36255L13.1038 10.1422C12.7387 10.1422 12.3767 10.1453 12.0269 10.1361V10.1269L9.69209 10.087L9.66141 11.8941C9.66141 11.8941 10.9132 11.891 10.8917 11.9156C11.5759 11.9278 11.7937 12.3298 11.852 12.6734L11.7968 15.8396C11.8428 15.8396 11.9042 15.8427 11.9747 15.855L11.7968 15.8519L11.7201 20.2883C11.6863 20.5031 11.5544 20.8437 11.0727 20.8375C11.0942 20.8559 9.84243 20.816 9.84243 20.816L9.47119 22.8287L11.6741 22.8686C12.0821 22.8778 12.4871 22.8901 12.8829 22.8993L12.8338 25.7096L14.5243 25.7372L14.5734 22.9576C15.0367 22.9729 15.4877 22.9852 15.9264 22.9944L15.8773 25.7618L17.5678 25.7894L17.6169 22.9852C20.4641 22.8717 22.4675 22.1905 22.7621 19.5213C22.9983 17.3737 22.0043 16.395 20.3966 15.9808C21.3845 15.5021 22.0135 14.6339 21.8938 13.1643ZM19.421 19.1347C19.3872 21.2364 15.7914 20.9326 14.644 20.9142L14.7115 17.1896C15.8589 17.208 19.4608 16.9411 19.421 19.1347ZM18.7276 13.8638C18.6938 15.7752 15.6963 15.4991 14.7421 15.4837L14.8004 12.1058C15.7546 12.1211 18.7613 11.8695 18.7276 13.8638Z" fill="white"/>
</svg>
