<svg width="48" height="49" viewBox="0 0 48 49" fill="none" xmlns="http://www.w3.org/2000/svg">
<rect y="0.734863" width="48" height="48" rx="24" fill="white" fill-opacity="0.1"/>
<path d="M17 21.7349C17 18.435 17 16.7851 18.0251 15.76C19.0502 14.7349 20.7002 14.7349 24 14.7349C27.2998 14.7349 28.9497 14.7349 29.9749 15.76C31 16.7851 31 18.435 31 21.7349V27.7349C31 31.0347 31 32.6846 29.9749 33.7098C28.9497 34.7349 27.2998 34.7349 24 34.7349C20.7002 34.7349 19.0502 34.7349 18.0251 33.7098C17 32.6846 17 31.0347 17 27.7349V21.7349Z" stroke="#99E39E" stroke-width="1.5" stroke-linecap="round"/>
<path d="M23 31.7349H25" stroke="#99E39E" stroke-width="1.5" stroke-linecap="round" stroke-linejoin="round"/>
<path d="M21 14.7349L21.089 15.2689C21.2819 16.4262 21.3783 17.0048 21.7752 17.3569C22.1892 17.7242 22.7761 17.7349 24 17.7349C25.2239 17.7349 25.8108 17.7242 26.2248 17.3569C26.6217 17.0048 26.7181 16.4262 26.911 15.2689L27 14.7349" stroke="#99E39E" stroke-width="1.5" stroke-linejoin="round"/>
</svg>
