<svg width="48" height="49" viewBox="0 0 48 49" fill="none" xmlns="http://www.w3.org/2000/svg">
<rect y="0.734863" width="48" height="48" rx="24" fill="white" fill-opacity="0.1"/>
<path d="M32.5 28.5627C29.9985 34.4909 21.8641 36.2184 17.2014 31.599C12.6295 27.0696 14.0449 18.8637 20.0565 16.2349" stroke="#99E39E" stroke-width="1.5" stroke-linecap="round"/>
<path d="M29.6831 25.2349C31.5708 25.2349 32.5146 25.2349 33.1241 24.3899C33.1469 24.3583 33.1848 24.3016 33.2052 24.2685C33.7527 23.382 33.4705 22.7009 32.9063 21.3386C32.3946 20.1034 31.6447 18.981 30.6993 18.0356C29.7538 17.0902 28.6315 16.3402 27.3962 15.8286C26.034 15.2643 25.3529 14.9822 24.4664 15.5296C24.4333 15.5501 24.3766 15.588 24.345 15.6107C23.5 16.2203 23.5 17.1641 23.5 19.0517V21.1623C23.5 23.0822 23.5 24.0421 24.0964 24.6385C24.6928 25.2349 25.6527 25.2349 27.5725 25.2349H29.6831Z" stroke="#99E39E" stroke-width="1.5"/>
</svg>
