<svg width="48" height="49" viewBox="0 0 48 49" fill="none" xmlns="http://www.w3.org/2000/svg">
<rect y="0.734863" width="48" height="48" rx="24" fill="white" fill-opacity="0.1"/>
<path d="M22.125 27.235V21.235M24 21.235V19.735M24 28.735V27.235M22.125 24.235H25.875M25.875 24.235C26.4963 24.235 27 24.7387 27 25.36V26.11C27 26.7313 26.4963 27.235 25.875 27.235H21M25.875 24.235C26.4963 24.235 27 23.7313 27 23.11V22.36C27 21.7387 26.4963 21.235 25.875 21.235H21" stroke="#99E39E" stroke-width="1.5" stroke-linecap="round" stroke-linejoin="round"/>
<path d="M33 23.9184V21.0153C33 19.3753 33 18.5553 32.5959 18.0203C32.1918 17.4853 31.2781 17.2256 29.4507 16.7061C28.2022 16.3512 27.1016 15.9237 26.2223 15.5333C25.0234 15.0011 24.424 14.735 24 14.735C23.576 14.735 22.9766 15.0011 21.7777 15.5333C20.8984 15.9237 19.7978 16.3512 18.5493 16.7061C16.7219 17.2256 15.8082 17.4853 15.4041 18.0203C15 18.5553 15 19.3753 15 21.0153V23.9184C15 29.5436 20.0628 32.9186 22.594 34.2545C23.2011 34.5749 23.5046 34.7351 24 34.7351C24.4954 34.7351 24.7989 34.5749 25.406 34.2545C27.9372 32.9186 33 29.5436 33 23.9184Z" stroke="#99E39E" stroke-width="1.5" stroke-linecap="round"/>
</svg>
