<svg width="592" height="329" viewBox="0 0 592 329" fill="none" xmlns="http://www.w3.org/2000/svg">
<path d="M7.61072 59.6882L24.4428 52.818L40.7138 59.6882L60.9122 48.8103H81.1107L99.0649 59.6882L113.092 48.8103L122.069 30.4897L146.195 52.818L178.737 39.65L197.252 48.8103L235.405 39.65L248.309 52.818L264.019 48.8103H279.168L290.95 59.6882H312.832L327.981 69.421L353.229 39.65L372.305 59.6882L394.748 48.8103L416.63 52.818L445.805 39.65L471.615 43.6577L510.889 30.4897L547.359 20.7569L587.195 1.86377" stroke="url(#paint0_linear_331_3322)" stroke-width="2.6" stroke-linecap="round"/>
<path d="M7.61072 188.505L24.4428 181.635L40.7138 188.505L60.9122 177.627H81.1107L99.0649 188.505L113.092 177.627L122.069 159.307L146.195 181.635L178.737 168.467L197.252 177.627L235.405 168.467L248.309 181.635L264.019 177.627H279.168L290.95 188.505H312.832L327.981 198.238L353.229 168.467L372.305 188.505L394.748 177.627L416.63 181.635L445.805 168.467L471.615 172.475L510.889 159.307L547.359 149.574L587.195 130.681" stroke="url(#paint1_linear_331_3322)" stroke-width="2.6" stroke-linecap="round"/>
<path d="M7.61072 316.749L24.4428 309.879L40.7138 316.749L60.9122 305.871H81.1107L99.0649 316.749L113.092 305.871L122.069 287.551L146.195 309.879L178.737 296.711L197.252 305.871L235.405 296.711L248.309 309.879L264.019 305.871H279.168L290.95 316.749H312.832L327.981 326.482L353.229 296.711L372.305 316.749L394.748 305.871L416.63 309.879L445.805 296.711L471.615 300.719L510.889 287.551L547.359 277.818L587.195 258.925" stroke="url(#paint2_linear_331_3322)" stroke-width="2.6" stroke-linecap="round"/>
<path d="M2 120.375L26.687 114.077L43.5191 120.375L59.229 114.077H75.5L99.626 120.375L117.019 106.635L140.584 114.077L152.366 106.635L173.687 114.077L192.763 106.635L216.328 114.077L237.088 106.635L252.798 114.077H261.214L272.435 100.91L282.534 114.077L297.122 106.635H312.832L334.153 114.077L357.718 100.91L379.038 114.077L392.504 106.635L415.508 120.375L432.901 114.077H464.321L482.836 106.635H505.279L519.866 100.91H563.069L590 79.7263" stroke="url(#paint3_linear_331_3322)" stroke-width="2.6" stroke-linecap="round"/>
<path d="M2 249.192L26.687 242.894L43.5191 249.192L59.229 242.894H75.5L99.626 249.192L117.019 235.452L140.584 242.894L152.366 235.452L173.687 242.894L192.763 235.452L216.328 242.894L237.088 235.452L252.798 242.894H261.214L272.435 229.726L282.534 242.894L297.122 235.452H312.832L334.153 242.894L357.718 229.726L379.038 242.894L392.504 235.452L415.508 249.192L432.901 242.894H464.321L482.836 235.452H505.279L519.866 229.726H563.069L590 208.543" stroke="url(#paint4_linear_331_3322)" stroke-width="2.6" stroke-linecap="round"/>
<circle opacity="0.9" cx="72" cy="49.3369" r="6" fill="#E79740"/>
<circle opacity="0.9" cx="56" cy="308.337" r="6" fill="#7E4BD0"/>
<circle opacity="0.9" cx="71" cy="177.337" r="6" fill="#E30278"/>
<circle opacity="0.9" cx="505" cy="236.337" r="6" fill="#3DC7C8"/>
<circle opacity="0.9" cx="519" cy="101.337" r="6" fill="#326DC9"/>
<defs>
<linearGradient id="paint0_linear_331_3322" x1="1.51003" y1="69.337" x2="614.01" y2="69.337" gradientUnits="userSpaceOnUse">
<stop stop-color="#000510"/>
<stop offset="0.505208" stop-color="#E79740"/>
<stop offset="1" stop-color="#000510" stop-opacity="0.04"/>
</linearGradient>
<linearGradient id="paint1_linear_331_3322" x1="-6.81997" y1="198.337" x2="611.56" y2="198.337" gradientUnits="userSpaceOnUse">
<stop stop-color="#000510"/>
<stop offset="0.5" stop-color="#E30278"/>
<stop offset="1" stop-color="#000510"/>
</linearGradient>
<linearGradient id="paint2_linear_331_3322" x1="-7.79997" y1="326.482" x2="587" y2="326" gradientUnits="userSpaceOnUse">
<stop stop-color="#000510"/>
<stop offset="0.489583" stop-color="#7E4BD0"/>
<stop offset="1" stop-color="#000510"/>
</linearGradient>
<linearGradient id="paint3_linear_331_3322" x1="-14.17" y1="128.337" x2="635.084" y2="120.654" gradientUnits="userSpaceOnUse">
<stop stop-color="#000510"/>
<stop offset="0.494792" stop-color="#326DC9"/>
<stop offset="1" stop-color="#000510"/>
</linearGradient>
<linearGradient id="paint4_linear_331_3322" x1="-12.21" y1="254.337" x2="611.07" y2="254.337" gradientUnits="userSpaceOnUse">
<stop stop-color="#000510"/>
<stop offset="0.494792" stop-color="#3DC7C8"/>
<stop offset="1" stop-color="#000510"/>
</linearGradient>
</defs>
</svg>
